<?xml version="1.0" encoding="UTF-8" standalone="no"?>
<!-- Created with Inkscape (http://www.inkscape.org/) -->

<svg
   width="180"
   height="180"
   viewBox="0 0 180 180"
   version="1.1"
   id="svg5"
   inkscape:export-filename="C:\Users\Kervi Jhonata\Documents\Coding\HTML\concessionaria\logo.png"
   inkscape:export-xdpi="180"
   inkscape:export-ydpi="180"
   inkscape:version="1.1.1 (3bf5ae0d25, 2021-09-20)"
   sodipodi:docname="logo.svg"
   xmlns:inkscape="http://www.inkscape.org/namespaces/inkscape"
   xmlns:sodipodi="http://sodipodi.sourceforge.net/DTD/sodipodi-0.dtd"
   xmlns="http://www.w3.org/2000/svg"
   xmlns:svg="http://www.w3.org/2000/svg">
  <sodipodi:namedview
     id="namedview7"
     pagecolor="#ffffff"
     bordercolor="#666666"
     borderopacity="1.0"
     inkscape:pageshadow="2"
     inkscape:pageopacity="0.0"
     inkscape:pagecheckerboard="0"
     inkscape:document-units="px"
     showgrid="false"
     showguides="true"
     inkscape:guide-bbox="true"
     inkscape:zoom="1.4444444"
     inkscape:cx="-6.2307692"
     inkscape:cy="128.42308"
     inkscape:window-width="1366"
     inkscape:window-height="705"
     inkscape:window-x="-8"
     inkscape:window-y="-8"
     inkscape:window-maximized="1"
     inkscape:current-layer="layer1" />
  <defs
     id="defs2" />
  <g
     inkscape:label="Camada 1"
     inkscape:groupmode="layer"
     id="layer1">
    <g
       id="g4899"
       transform="translate(0,-4.566595)">
      <rect
         style="fill:#ffff00;fill-opacity:1;stroke:none;stroke-width:4.53192"
         id="rect4788"
         width="108.97352"
         height="48.154793"
         x="17.105915"
         y="76.388046" />
      <path
         d="M 4.177584,63.25909 H 147.09359 V 76.388044 H 17.10592 V 87.588969 H 28.754227 V 100.30477 H 17.10592 v 24.23806 H 4.177584 Z"
         style="font-size:40px;line-height:1.25;font-family:'Tw Cen MT Condensed Extra Bold';-inkscape-font-specification:'Tw Cen MT Condensed Extra Bold, ';stroke-width:2.26596"
         id="path3381"
         sodipodi:nodetypes="ccccccccccc" />
      <path
         d="m 63.613804,124.54283 -1.710899,-5.55455 h -0.170682 c -0.772329,2.38709 -1.69524,4.14678 -2.768724,5.27912 -1.045035,1.13233 -3.274462,0.47813 -5.180291,0.47813 -3.726319,0 -6.576416,-0.83008 -10.058285,-4.93096 -3.481865,-4.10088 -6.306842,-9.67073 -8.474923,-16.70956 -2.083248,-6.763405 -2.618719,-12.149645 -1.606413,-16.158719 1.012307,-4.009073 3.353174,-6.013609 7.022602,-6.013609 1.962717,0 3.791724,0.535562 5.487018,1.606688 1.685868,1.040525 3.626584,2.723724 5.822143,5.049599 h 0.170683 L 50.51997,82.309844 H 62.936295 L 75.94479,124.54283 Z M 57.038858,103.19682 C 54.8802,96.188587 52.207942,92.684472 49.022081,92.684472 c -3.214305,0 -3.74213,3.504115 -1.583474,10.512348 2.243496,7.28366 5.029288,10.92549 8.357374,10.92549 3.07208,0 3.486372,-3.64183 1.242877,-10.92549 z"
         style="font-size:40px;line-height:1.25;font-family:'Tw Cen MT Condensed Extra Bold';-inkscape-font-specification:'Tw Cen MT Condensed Extra Bold, ';stroke-width:2.26596"
         id="path3383"
         sodipodi:nodetypes="ccccssssscccccccsssss" />
      <path
         d="m 82.211575,110.90893 q 6.357491,4.03967 9.173567,4.03967 1.536044,0 2.560071,-0.82629 1.024026,-0.87221 1.024026,-2.06575 0,-1.28534 -0.853357,-1.88212 -0.853357,-0.59678 -6.400163,-3.21338 -4.437455,-2.11166 -6.400173,-4.95778 -1.962718,-2.892044 -1.962718,-7.161255 0,-6.105421 3.882774,-10.053287 3.925436,-3.947868 9.98426,-3.947868 5.888158,0 14.421708,5.049598 l -4.7788,9.502422 q -5.546801,-3.672434 -9.088227,-3.672434 -3.072079,0 -3.072079,2.662516 0,1.285352 1.109361,2.249365 1.152024,0.918109 4.138778,2.065753 5.589467,2.11163 8.106877,5.04958 2.56006,2.93795 2.56006,7.4367 0,6.42674 -4.01077,10.55822 -4.01077,4.13151 -10.240265,4.13151 -6.741511,0 -14.421715,-5.09551 z"
         style="font-size:40px;line-height:1.25;font-family:'Tw Cen MT Condensed Extra Bold';-inkscape-font-specification:'Tw Cen MT Condensed Extra Bold, ';stroke-width:2.26596"
         id="path3385" />
      <path
         style="fill:#ffff00;fill-opacity:1;stroke:none;stroke-width:2.13648px;stroke-linecap:butt;stroke-linejoin:miter;stroke-opacity:1"
         d="m 137.11734,76.388044 h -11.0379 v 48.154786 h 11.0379 l 39.54114,-48.141469 -39.54114,-0.0134 h -11.0379"
         id="path4372"
         sodipodi:nodetypes="ccccccc" />
      <path
         style="fill:#000000;fill-opacity:1;stroke:none;stroke-width:0.664545px;stroke-linecap:butt;stroke-linejoin:miter;stroke-opacity:1"
         d="m 151.01052,63.25909 h -3.91693 v 13.128954 h 3.91693 l 7.45715,-6.803553 -7.45715,-6.325401 h -3.91693"
         id="path4372-8" />
      <path
         d="m 113.74845,71.063014 h 12.41632 v 11.24683 h 4.82147 v 11.109115 h -4.9068 V 124.54283 H 113.74845 V 93.327147 H 109.055 V 82.309844 h 4.69345 z"
         style="font-size:40px;line-height:1.25;font-family:'Tw Cen MT Condensed Extra Bold';-inkscape-font-specification:'Tw Cen MT Condensed Extra Bold, ';stroke-width:2.26596"
         id="path3387" />
    </g>
  </g>
</svg>
