<?xml version="1.0" encoding="UTF-8" standalone="no"?>
<!-- Created with Inkscape (http://www.inkscape.org/) -->

<svg
   width="180"
   height="180"
   viewBox="0 0 180 180"
   version="1.1"
   id="svg5"
   inkscape:export-filename="C:\Users\Kervi Jhonata\Documents\Coding\HTML\concessionaria\1logo.png"
   inkscape:export-xdpi="180"
   inkscape:export-ydpi="180"
   inkscape:version="1.1.1 (3bf5ae0d25, 2021-09-20)"
   sodipodi:docname="logo.svg"
   xmlns:inkscape="http://www.inkscape.org/namespaces/inkscape"
   xmlns:sodipodi="http://sodipodi.sourceforge.net/DTD/sodipodi-0.dtd"
   xmlns="http://www.w3.org/2000/svg"
   xmlns:svg="http://www.w3.org/2000/svg">
  <sodipodi:namedview
     id="namedview7"
     pagecolor="#ffffff"
     bordercolor="#666666"
     borderopacity="1.0"
     inkscape:pageshadow="2"
     inkscape:pageopacity="0.0"
     inkscape:pagecheckerboard="0"
     inkscape:document-units="px"
     showgrid="false"
     showguides="true"
     inkscape:guide-bbox="true"
     inkscape:zoom="1.4444444"
     inkscape:cx="92.076926"
     inkscape:cy="82.730772"
     inkscape:window-width="1366"
     inkscape:window-height="705"
     inkscape:window-x="-8"
     inkscape:window-y="-8"
     inkscape:window-maximized="1"
     inkscape:current-layer="layer1" />
  <defs
     id="defs2" />
  <g
     inkscape:label="Camada 1"
     inkscape:groupmode="layer"
     id="layer1">
    <g
       id="g4899"
       transform="translate(-228.46155,172.66418)">
      <rect
         style="fill:#ffff00;fill-opacity:1;stroke:none;stroke-width:4.53192"
         id="rect4788"
         width="108.97352"
         height="48.154793"
         x="17.105915"
         y="76.388046" />
      <path
         d="M 4.177584,63.25909 H 147.09359 V 76.388044 H 17.10592 V 87.588969 H 28.754227 V 100.30477 H 17.10592 v 24.23806 H 4.177584 Z"
         style="font-size:40px;line-height:1.25;font-family:'Tw Cen MT Condensed Extra Bold';-inkscape-font-specification:'Tw Cen MT Condensed Extra Bold, ';stroke-width:2.26596"
         id="path3381"
         sodipodi:nodetypes="ccccccccccc" />
      <path
         d="m 63.613804,124.54283 -1.710899,-5.55455 h -0.170682 c -0.772329,2.38709 -1.69524,4.14678 -2.768724,5.27912 -1.045035,1.13233 -3.274462,0.47813 -5.180291,0.47813 -3.726319,0 -6.576416,-0.83008 -10.058285,-4.93096 -3.481865,-4.10088 -6.306842,-9.67073 -8.474923,-16.70956 -2.083248,-6.763405 -2.618719,-12.149645 -1.606413,-16.158719 1.012307,-4.009073 3.353174,-6.013609 7.022602,-6.013609 1.962717,0 3.791724,0.535562 5.487018,1.606688 1.685868,1.040525 3.626584,2.723724 5.822143,5.049599 h 0.170683 L 50.51997,82.309844 H 62.936295 L 75.94479,124.54283 Z M 57.038858,103.19682 C 54.8802,96.188587 52.207942,92.684472 49.022081,92.684472 c -3.214305,0 -3.74213,3.504115 -1.583474,10.512348 2.243496,7.28366 5.029288,10.92549 8.357374,10.92549 3.07208,0 3.486372,-3.64183 1.242877,-10.92549 z"
         style="font-size:40px;line-height:1.25;font-family:'Tw Cen MT Condensed Extra Bold';-inkscape-font-specification:'Tw Cen MT Condensed Extra Bold, ';stroke-width:2.26596"
         id="path3383"
         sodipodi:nodetypes="ccccssssscccccccsssss" />
      <path
         d="m 82.211575,110.90893 q 6.357491,4.03967 9.173567,4.03967 1.536044,0 2.560071,-0.82629 1.024026,-0.87221 1.024026,-2.06575 0,-1.28534 -0.853357,-1.88212 -0.853357,-0.59678 -6.400163,-3.21338 -4.437455,-2.11166 -6.400173,-4.95778 -1.962718,-2.892044 -1.962718,-7.161255 0,-6.105421 3.882774,-10.053287 3.925436,-3.947868 9.98426,-3.947868 5.888158,0 14.421708,5.049598 l -4.7788,9.502422 q -5.546801,-3.672434 -9.088227,-3.672434 -3.072079,0 -3.072079,2.662516 0,1.285352 1.109361,2.249365 1.152024,0.918109 4.138778,2.065753 5.589467,2.11163 8.106877,5.04958 2.56006,2.93795 2.56006,7.4367 0,6.42674 -4.01077,10.55822 -4.01077,4.13151 -10.240265,4.13151 -6.741511,0 -14.421715,-5.09551 z"
         style="font-size:40px;line-height:1.25;font-family:'Tw Cen MT Condensed Extra Bold';-inkscape-font-specification:'Tw Cen MT Condensed Extra Bold, ';stroke-width:2.26596"
         id="path3385" />
      <path
         style="fill:#ffff00;fill-opacity:1;stroke:none;stroke-width:2.13648px;stroke-linecap:butt;stroke-linejoin:miter;stroke-opacity:1"
         d="m 137.11734,76.388044 h -11.0379 v 48.154786 h 11.0379 l 39.54114,-48.141469 -39.54114,-0.0134 h -11.0379"
         id="path4372"
         sodipodi:nodetypes="ccccccc" />
      <path
         style="fill:#000000;fill-opacity:1;stroke:none;stroke-width:0.664545px;stroke-linecap:butt;stroke-linejoin:miter;stroke-opacity:1"
         d="m 151.01052,63.25909 h -3.91693 v 13.128954 h 3.91693 l 7.45715,-6.803553 -7.45715,-6.325401 h -3.91693"
         id="path4372-8" />
      <path
         d="m 113.74845,71.063014 h 12.41632 v 11.24683 h 4.82147 v 11.109115 h -4.9068 V 124.54283 H 113.74845 V 93.327147 H 109.055 V 82.309844 h 4.69345 z"
         style="font-size:40px;line-height:1.25;font-family:'Tw Cen MT Condensed Extra Bold';-inkscape-font-specification:'Tw Cen MT Condensed Extra Bold, ';stroke-width:2.26596"
         id="path3387" />
    </g>
    <g
       id="g1824"
       transform="matrix(1.0975129,0,0,1.0975129,-8.292547,-11.360088)">
      <path
         style="fill:#ffff00;stroke:#000000;stroke-width:1.61977px;stroke-linecap:butt;stroke-linejoin:miter;stroke-opacity:1"
         d="M 11.929783,112.55451 30.214075,79.611137 H 167.43868 l -16.27196,32.943373 z"
         id="path1615" />
      <path
         d="M 145.67863,79.611137 H 39.701811 l -4.521473,8.751559 h 17.00303 l -4.295396,8.313978 H 30.884942 L 22.681699,112.55451 H 11.929783 l 21.315511,-41.257355 117.200856,0.06251 z"
         style="font-weight:bold;font-size:40px;line-height:1.25;font-family:'Work Sans';-inkscape-font-specification:'Work Sans Bold';stroke-width:1.56278"
         id="path833"
         sodipodi:nodetypes="ccccccccccc" />
      <path
         d="m 71.138835,92.738472 q 1.130366,-2.18789 0.526071,-3.438113 -0.50949,-1.31273 -2.572357,-1.31273 -2.062868,0 -4.11217,1.062686 -1.954497,1.000178 -3.873542,3.625646 l -7.903531,-2.125379 q 3.200485,-4.500798 8.33989,-7.188777 5.139408,-2.687979 11.953122,-2.687979 4.563313,0 7.040864,1.375245 2.572357,1.312734 2.871418,4.000713 0.393875,2.625468 -1.60849,6.501155 l -5.910209,11.439541 q -1.259553,2.43794 0.928337,2.43794 1.125201,0 1.942002,-0.25005 l -3.757841,6.06358 q -2.327485,0.87516 -5.015464,0.87516 -2.437935,0 -3.925715,-0.75014 -1.455479,-0.81264 -1.710766,-2.37542 -0.222985,-1.62529 1.036567,-4.06322 l 0.193777,-0.37507 1.413783,-0.43758 q -1.388732,2.68798 -3.950618,4.5008 -2.499367,1.81283 -5.51447,2.68798 -2.952593,0.87516 -5.703083,0.87516 -3.188069,0 -5.046751,-1.00018 -1.858685,-1.00018 -2.202532,-2.87551 -0.24904,-1.93785 1.204291,-4.75085 1.743997,-3.3756 4.87472,-5.563494 3.225533,-2.250401 8.053459,-3.125557 l 13.074158,-2.437934 -2.96917,5.626002 -6.646997,1.250223 q -2.069111,0.37507 -3.394331,1.1252 -1.230415,0.68762 -1.973228,2.12538 -0.710518,1.37525 -0.06559,2.06287 0.644921,0.68762 2.020166,0.68762 1.062689,0 2.161838,-0.31255 1.161661,-0.31256 2.234758,-0.93767 1.105392,-0.68763 2.059703,-1.6878 0.954319,-1.00018 1.664836,-2.37543 z"
         style="font-weight:bold;font-size:40px;line-height:1.25;font-family:'Work Sans';-inkscape-font-specification:'Work Sans Bold';stroke-width:1.56278"
         id="path835" />
      <path
         d="m 95.58411,113.17962 q -4.688332,0 -7.976449,-1.50027 -3.193304,-1.56278 -4.333147,-4.43829 l 8.036736,-5.87605 q 0.529294,2.00036 2.381734,3.3756 1.947253,1.31274 5.135321,1.31274 1.937845,0 3.478725,-0.5626 1.5409,-0.5626 2.15452,-1.75032 0.45215,-0.87515 0.0854,-1.37524 -0.33444,-0.5626 -2.016,-0.93767 l -3.923632,-0.87516 q -5.262422,-1.187707 -6.567905,-3.500619 -1.210673,-2.375424 0.759393,-6.188603 1.324143,-2.562953 4.081884,-4.875865 2.790036,-2.375423 6.78343,-3.81318 4.02568,-1.500267 9.08909,-1.500267 4.75084,0 7.66597,1.375245 2.91513,1.375245 3.68406,4.000713 l -8.03465,5.751021 q -0.53137,-1.875334 -2.35776,-2.938024 -1.82639,-1.062685 -4.20181,-1.062685 -1.50027,0 -2.72444,0.312556 -1.12937,0.250044 -1.88783,0.750129 -0.75845,0.500089 -1.14601,1.250223 -0.41985,0.812645 0.007,1.437756 0.52198,0.562601 2.42129,1.000179 l 5.10718,1.1252 q 4.36121,0.875156 5.29163,3.188068 0.93042,2.312912 -0.74898,5.563493 -1.58252,3.06305 -4.46736,5.50098 -2.88486,2.43794 -6.87825,3.87569 -3.96109,1.37525 -8.899473,1.37525 z"
         style="font-weight:bold;font-size:40px;line-height:1.25;font-family:'Work Sans';-inkscape-font-specification:'Work Sans Bold';stroke-width:1.56278"
         id="path837" />
      <path
         d="m 150.44615,71.359666 -15.53449,30.067854 q -1.16266,2.2504 -0.6167,3.25058 0.64075,0.93767 2.5786,0.93767 1.50027,0 2.72444,-0.31256 1.31897,-0.37506 2.54939,-1.06269 l -2.2659,6.56367 q -2.14412,1.12521 -4.84251,1.75032 -2.69838,0.62511 -5.19883,0.62511 -3.56314,0 -5.67185,-1.00018 -2.04623,-1.00018 -2.35361,-3.18807 -0.24489,-2.18789 1.56579,-5.81354 l 14.92085,-28.88014 z m 4.17906,9.939271 -3.90784,7.563844 h -25.31701 l 3.90784,-7.563844 z"
         style="font-weight:bold;font-size:40px;line-height:1.25;font-family:'Work Sans';-inkscape-font-specification:'Work Sans Bold';stroke-width:1.56278"
         id="path839" />
    </g>
  </g>
</svg>
